<?xml version="1.0" standalone="no"?>
<!DOCTYPE svg PUBLIC "-//W3C//DTD SVG 20010904//EN"
 "http://www.w3.org/TR/2001/REC-SVG-20010904/DTD/svg10.dtd">
<svg version="1.0" xmlns="http://www.w3.org/2000/svg"
 width="1000.000000pt" height="1000.000000pt" viewBox="0 0 1000.000000 1000.000000"
 preserveAspectRatio="xMidYMid meet">
<metadata>
Created by potrace 1.11, written by Peter Selinger 2001-2013
</metadata>
<g transform="translate(0.000000,1000.000000) scale(0.100000,-0.100000)"
fill="#000000" stroke="none">
<path d="M4433 6589 c-119 -10 -164 -23 -192 -53 -19 -20 -92 -272 -357 -1223
-183 -659 -333 -1195 -333 -1192 -1 3 -28 109 -60 235 -33 126 -98 380 -145
564 -337 1323 -407 1586 -424 1610 -27 36 -81 51 -212 57 -131 6 -268 -9 -311
-34 -17 -10 -35 -33 -44 -58 -39 -107 -855 -2983 -855 -3014 0 -67 29 -82 169
-89 125 -5 237 10 261 35 11 11 97 317 219 773 112 415 271 1010 354 1322 84
312 155 564 158 560 4 -4 102 -383 219 -842 117 -459 232 -909 255 -1000 23
-91 77 -302 120 -470 42 -168 83 -315 91 -327 23 -36 78 -48 224 -48 153 0
203 12 224 54 8 15 35 101 60 191 316 1151 530 1933 588 2145 39 143 74 263
77 268 4 4 31 -79 60 -185 47 -170 236 -849 279 -998 15 -54 15 -55 24 -25 4
17 51 196 104 398 80 310 94 376 89 415 -11 80 -227 876 -243 894 -29 35 -218
52 -399 37z"/>
<path d="M6342 6590 c-58 -9 -98 -30 -106 -57 -3 -10 -69 -265 -146 -568 -77
-302 -164 -644 -194 -760 -30 -115 -81 -318 -115 -450 -151 -593 -212 -831
-218 -850 -3 -12 -66 205 -159 555 -85 316 -158 584 -164 595 -5 11 -16 47
-25 80 -22 79 -25 89 -29 84 -2 -2 -50 -185 -106 -407 l-102 -403 51 -192 c28
-106 83 -313 121 -461 80 -301 97 -340 157 -353 21 -4 124 -8 228 -7 208 0
253 9 287 54 17 24 108 368 524 1998 l108 423 332 -1196 c363 -1309 340 -1240
423 -1266 49 -15 282 -20 355 -8 77 13 114 33 131 72 23 49 854 2953 861 3006
12 91 -49 122 -231 116 -122 -4 -163 -13 -181 -40 -16 -24 -44 -129 -459
-1710 -136 -517 -250 -943 -254 -947 -3 -4 -165 575 -360 1285 -194 711 -362
1311 -372 1335 -13 32 -27 47 -54 58 -42 17 -222 26 -303 14z"/>
</g>
</svg>
